# xmcd CD database file
#
# Track frame offsets:
#	150
#	21985
#	44562
#	70612
#	81337
#	115400
#	139912
#
# Disc length: 2062 seconds
#
# Revision: 0
# Processed by: cddbd v1.5.2PL0 Copyright (c) Steve Scherf et al.
# Submitted via: CDex 1.51
#
DISCID=62080c07
DTITLE=Chris Beckers' Splash - Night Moves
DYEAR=1983
DGENRE=Jazz
TTITLE0=Brazilian Air
TTITLE1=Windstrider
TTITLE2=Skyline Filters
TTITLE3=Alaska
TTITLE4=Nightcruising
TTITLE5=Swedish Fruit
TTITLE6=Zaba Krol
EXTD=YEAR: 1983
EXTT0=
EXTT1=
EXTT2=
EXTT3=
EXTT4=
EXTT5=
EXTT6=
PLAYORDER=
